<svg width="15" height="15" viewBox="0 0 15 15" fill="none" xmlns="http://www.w3.org/2000/svg">
<path d="M7.4999 9.075L1.9874 14.5875C1.78115 14.7937 1.51865 14.8969 1.1999 14.8969C0.881152 14.8969 0.618652 14.7937 0.412402 14.5875C0.206152 14.3812 0.103027 14.1188 0.103027 13.8C0.103027 13.4813 0.206152 13.2187 0.412402 13.0125L5.9249 7.5L0.412402 1.9875C0.206152 1.78125 0.103027 1.51875 0.103027 1.2C0.103027 0.88125 0.206152 0.61875 0.412402 0.4125C0.618652 0.20625 0.881152 0.103125 1.1999 0.103125C1.51865 0.103125 1.78115 0.20625 1.9874 0.4125L7.4999 5.925L13.0124 0.4125C13.2187 0.20625 13.4812 0.103125 13.7999 0.103125C14.1187 0.103125 14.3812 0.20625 14.5874 0.4125C14.7937 0.61875 14.8968 0.88125 14.8968 1.2C14.8968 1.51875 14.7937 1.78125 14.5874 1.9875L9.0749 7.5L14.5874 13.0125C14.7937 13.2187 14.8968 13.4813 14.8968 13.8C14.8968 14.1188 14.7937 14.3812 14.5874 14.5875C14.3812 14.7937 14.1187 14.8969 13.7999 14.8969C13.4812 14.8969 13.2187 14.7937 13.0124 14.5875L7.4999 9.075Z" fill="#00A399"/>
</svg>
