<svg width="84" height="84" viewBox="0 0 84 84" fill="none" xmlns="http://www.w3.org/2000/svg">
<g clip-path="url(#clip0_1_132)">
<path d="M84 0H0V84H84V0Z" fill="white" fill-opacity="0.01"/>
<path fill-rule="evenodd" clip-rule="evenodd" d="M78.1878 23.3121C78.8438 23.9682 78.8438 25.0319 78.1878 25.688L43.1878 60.688C42.8727 61.0031 42.4454 61.1801 41.9998 61.1801C41.5543 61.1801 41.1269 61.0031 40.8119 60.688L38.6244 58.5005C37.9683 57.8444 37.9683 56.7807 38.6244 56.1246C39.2805 55.4685 40.3442 55.4685 41.0003 56.1246L41.9998 57.1242L75.8119 23.3121C76.468 22.656 77.5317 22.656 78.1878 23.3121ZM23.3119 40.8121C23.968 40.156 25.0317 40.156 25.6878 40.8121L27.8753 42.9996C28.5313 43.6557 28.5313 44.7194 27.8753 45.3755C27.2192 46.0316 26.1555 46.0316 25.4994 45.3755L23.3119 43.188C22.6558 42.5319 22.6558 41.4682 23.3119 40.8121Z" fill="url(#paint0_linear_1_132)"/>
<path fill-rule="evenodd" clip-rule="evenodd" d="M60.6878 23.3121C61.3438 23.9682 61.3438 25.0319 60.6878 25.688L25.6878 60.688C25.3727 61.0031 24.9454 61.1801 24.4998 61.1801C24.0543 61.1801 23.6269 61.0031 23.3119 60.688L5.81188 43.188C5.1558 42.5319 5.1558 41.4682 5.81188 40.8121C6.46797 40.156 7.53168 40.156 8.18776 40.8121L24.4998 57.1242L58.3119 23.3121C58.968 22.656 60.0317 22.656 60.6878 23.3121Z" fill="url(#paint1_linear_1_132)"/>
</g>
<defs>
<linearGradient id="paint0_linear_1_132" x1="50.7498" y1="22.8201" x2="50.7498" y2="61.1801" gradientUnits="userSpaceOnUse">
<stop stop-color="#DBEFEC"/>
<stop offset="1" stop-color="#96D5CE"/>
</linearGradient>
<linearGradient id="paint1_linear_1_132" x1="33.2498" y1="22.8201" x2="33.2498" y2="61.1801" gradientUnits="userSpaceOnUse">
<stop stop-color="#DBEFEC"/>
<stop offset="1" stop-color="#96D5CE"/>
</linearGradient>
<clipPath id="clip0_1_132">
<rect width="84" height="84" fill="white"/>
</clipPath>
</defs>
</svg>
