<svg width="85" height="84" viewBox="0 0 85 84" fill="none" xmlns="http://www.w3.org/2000/svg">
<path fill-rule="evenodd" clip-rule="evenodd" d="M12.8201 10.5001C12.8201 7.63923 15.1392 5.32007 18.0001 5.32007H54.7501C55.2263 5.32007 55.6802 5.52221 55.9988 5.87621L71.7488 23.3762C72.0264 23.6847 72.1801 24.085 72.1801 24.5001V40.2501C72.1801 41.1779 71.4279 41.9301 70.5001 41.9301C69.5722 41.9301 68.8201 41.1779 68.8201 40.2501V25.1447L54.0019 8.68007H18.0001C16.9949 8.68007 16.1801 9.49491 16.1801 10.5001V73.5001C16.1801 74.5053 16.9949 75.3201 18.0001 75.3201H39.0001C39.9279 75.3201 40.6801 76.0722 40.6801 77.0001C40.6801 77.9279 39.9279 78.6801 39.0001 78.6801H18.0001C15.1392 78.6801 12.8201 76.361 12.8201 73.5001V10.5001Z" fill="url(#paint0_linear_1_103)"/>
<path fill-rule="evenodd" clip-rule="evenodd" d="M65.8121 51.3121C66.4682 50.656 67.5319 50.656 68.188 51.3121L75.188 58.3121C75.8441 58.9682 75.8441 60.0319 75.188 60.688L57.688 78.188C57.3729 78.5031 56.9456 78.6801 56.5001 78.6801H49.5001C48.5722 78.6801 47.8201 77.9279 47.8201 77.0001V70.0001C47.8201 69.5545 47.9971 69.1272 48.3121 68.8121L65.8121 51.3121ZM51.1801 70.6959V75.3201H55.8042L71.6242 59.5001L67.0001 54.8759L51.1801 70.6959Z" fill="url(#paint1_linear_1_103)"/>
<path fill-rule="evenodd" clip-rule="evenodd" d="M53.0001 5.32007C53.9279 5.32007 54.6801 6.07223 54.6801 7.00007V22.8201H70.5001C71.4279 22.8201 72.1801 23.5722 72.1801 24.5001C72.1801 25.4279 71.4279 26.1801 70.5001 26.1801H53.0001C52.0722 26.1801 51.3201 25.4279 51.3201 24.5001V7.00007C51.3201 6.07223 52.0722 5.32007 53.0001 5.32007Z" fill="url(#paint2_linear_1_103)"/>
<defs>
<linearGradient id="paint0_linear_1_103" x1="42.5001" y1="5.32007" x2="42.5001" y2="78.6801" gradientUnits="userSpaceOnUse">
<stop stop-color="#DBEFEC"/>
<stop offset="1" stop-color="#96D5CE"/>
</linearGradient>
<linearGradient id="paint1_linear_1_103" x1="61.7501" y1="50.8201" x2="61.7501" y2="78.6801" gradientUnits="userSpaceOnUse">
<stop stop-color="#DBEFEC"/>
<stop offset="1" stop-color="#96D5CE"/>
</linearGradient>
<linearGradient id="paint2_linear_1_103" x1="61.7501" y1="5.32007" x2="61.7501" y2="26.1801" gradientUnits="userSpaceOnUse">
<stop stop-color="#DBEFEC"/>
<stop offset="1" stop-color="#96D5CE"/>
</linearGradient>
</defs>
</svg>
