<svg width="85" height="84" viewBox="0 0 85 84" fill="none" xmlns="http://www.w3.org/2000/svg">
<path fill-rule="evenodd" clip-rule="evenodd" d="M12.8198 10.5001C12.8198 7.63923 15.139 5.32007 17.9998 5.32007H54.7498C55.2261 5.32007 55.68 5.52221 55.9986 5.87621L71.7486 23.3762C72.0262 23.6847 72.1798 24.085 72.1798 24.5001V73.5001C72.1798 76.361 69.8607 78.6801 66.9998 78.6801H17.9998C15.139 78.6801 12.8198 76.361 12.8198 73.5001V10.5001ZM17.9998 8.68007C16.9947 8.68007 16.1798 9.49491 16.1798 10.5001V73.5001C16.1798 74.5053 16.9946 75.3201 17.9998 75.3201H66.9998C68.005 75.3201 68.8198 74.5053 68.8198 73.5001V25.1447L54.0016 8.68007H17.9998Z" fill="url(#paint0_linear_1_109)"/>
<path fill-rule="evenodd" clip-rule="evenodd" d="M38.9998 36.6801C34.1287 36.6801 30.1798 40.6289 30.1798 45.5001C30.1798 50.3712 34.1287 54.3201 38.9998 54.3201C43.871 54.3201 47.8198 50.3712 47.8198 45.5001C47.8198 40.6289 43.871 36.6801 38.9998 36.6801ZM26.8198 45.5001C26.8198 38.7732 32.273 33.3201 38.9998 33.3201C45.7267 33.3201 51.1798 38.7732 51.1798 45.5001C51.1798 52.2269 45.7267 57.6801 38.9998 57.6801C32.273 57.6801 26.8198 52.2269 26.8198 45.5001Z" fill="url(#paint1_linear_1_109)"/>
<path fill-rule="evenodd" clip-rule="evenodd" d="M46.438 51.4504C47.0176 50.7259 48.0749 50.6084 48.7994 51.188L57.5494 58.188C58.2739 58.7676 58.3914 59.8249 57.8117 60.5494C57.2321 61.2739 56.1749 61.3914 55.4504 60.8117L46.7004 53.8117C45.9759 53.2321 45.8584 52.1749 46.438 51.4504Z" fill="url(#paint2_linear_1_109)"/>
<path fill-rule="evenodd" clip-rule="evenodd" d="M52.9998 5.32007C53.9277 5.32007 54.6798 6.07223 54.6798 7.00007V22.8201H70.4998C71.4277 22.8201 72.1798 23.5722 72.1798 24.5001C72.1798 25.4279 71.4277 26.1801 70.4998 26.1801H52.9998C52.072 26.1801 51.3198 25.4279 51.3198 24.5001V7.00007C51.3198 6.07223 52.072 5.32007 52.9998 5.32007Z" fill="url(#paint3_linear_1_109)"/>
<defs>
<linearGradient id="paint0_linear_1_109" x1="42.4998" y1="5.32007" x2="42.4998" y2="78.6801" gradientUnits="userSpaceOnUse">
<stop stop-color="#DBEFEC"/>
<stop offset="1" stop-color="#96D5CE"/>
</linearGradient>
<linearGradient id="paint1_linear_1_109" x1="38.9998" y1="33.3201" x2="38.9998" y2="57.6801" gradientUnits="userSpaceOnUse">
<stop stop-color="#DBEFEC"/>
<stop offset="1" stop-color="#96D5CE"/>
</linearGradient>
<linearGradient id="paint2_linear_1_109" x1="52.1249" y1="50.8198" x2="52.1249" y2="61.1799" gradientUnits="userSpaceOnUse">
<stop stop-color="#DBEFEC"/>
<stop offset="1" stop-color="#96D5CE"/>
</linearGradient>
<linearGradient id="paint3_linear_1_109" x1="61.7498" y1="5.32007" x2="61.7498" y2="26.1801" gradientUnits="userSpaceOnUse">
<stop stop-color="#DBEFEC"/>
<stop offset="1" stop-color="#96D5CE"/>
</linearGradient>
</defs>
</svg>
