<svg width="85" height="84" viewBox="0 0 85 84" fill="none" xmlns="http://www.w3.org/2000/svg">
<path fill-rule="evenodd" clip-rule="evenodd" d="M12.8198 10.5001C12.8198 7.63923 15.139 5.32007 17.9998 5.32007H54.7498C55.2261 5.32007 55.68 5.52221 55.9986 5.87621L71.7486 23.3762C72.0262 23.6847 72.1798 24.085 72.1798 24.5001V40.2501C72.1798 41.1779 71.4277 41.9301 70.4998 41.9301C69.572 41.9301 68.8198 41.1779 68.8198 40.2501V25.1447L54.0016 8.68007H17.9998C16.9947 8.68007 16.1798 9.49491 16.1798 10.5001V73.5001C16.1798 74.5053 16.9946 75.3201 17.9998 75.3201H38.9998C39.9277 75.3201 40.6798 76.0722 40.6798 77.0001C40.6798 77.9279 39.9277 78.6801 38.9998 78.6801H17.9998C15.139 78.6801 12.8198 76.361 12.8198 73.5001V10.5001Z" fill="url(#paint0_linear_1_115)"/>
<path fill-rule="evenodd" clip-rule="evenodd" d="M59.9998 55.9301C56.0952 55.9301 52.9298 59.0954 52.9298 63.0001C52.9298 66.9047 56.0952 70.0701 59.9998 70.0701C63.9045 70.0701 67.0698 66.9047 67.0698 63.0001C67.0698 59.0954 63.9045 55.9301 59.9998 55.9301ZM49.5698 63.0001C49.5698 57.2397 54.2395 52.5701 59.9998 52.5701C65.7602 52.5701 70.4298 57.2397 70.4298 63.0001C70.4298 68.7604 65.7602 73.4301 59.9998 73.4301C54.2395 73.4301 49.5698 68.7604 49.5698 63.0001Z" fill="url(#paint1_linear_1_115)"/>
<path fill-rule="evenodd" clip-rule="evenodd" d="M59.9998 47.3201C60.9277 47.3201 61.6798 48.0722 61.6798 49.0001V54.2501C61.6798 55.1779 60.9277 55.9301 59.9998 55.9301C59.072 55.9301 58.3198 55.1779 58.3198 54.2501V49.0001C58.3198 48.0722 59.072 47.3201 59.9998 47.3201Z" fill="url(#paint2_linear_1_115)"/>
<path fill-rule="evenodd" clip-rule="evenodd" d="M59.9998 70.0701C60.9277 70.0701 61.6798 70.8222 61.6798 71.7501V77.0001C61.6798 77.9279 60.9277 78.6801 59.9998 78.6801C59.072 78.6801 58.3198 77.9279 58.3198 77.0001V71.7501C58.3198 70.8222 59.072 70.0701 59.9998 70.0701Z" fill="url(#paint3_linear_1_115)"/>
<path fill-rule="evenodd" clip-rule="evenodd" d="M71.3873 51.3121C72.0434 51.9682 72.0434 53.0319 71.3873 53.688L67.6751 57.4003C67.019 58.0564 65.9553 58.0564 65.2992 57.4003C64.6431 56.7442 64.6431 55.6805 65.2992 55.0244L69.0115 51.3121C69.6675 50.656 70.7313 50.656 71.3873 51.3121Z" fill="url(#paint4_linear_1_115)"/>
<path fill-rule="evenodd" clip-rule="evenodd" d="M53.8873 68.8121C54.5434 69.4682 54.5434 70.5319 53.8873 71.188L50.1751 74.9003C49.519 75.5564 48.4553 75.5564 47.7992 74.9003C47.1431 74.2442 47.1431 73.1805 47.7992 72.5244L51.5115 68.8121C52.1675 68.156 53.2313 68.156 53.8873 68.8121Z" fill="url(#paint5_linear_1_115)"/>
<path fill-rule="evenodd" clip-rule="evenodd" d="M48.3119 51.3121C48.968 50.656 50.0317 50.656 50.6878 51.3121L54.4 55.0244C55.0561 55.6805 55.0561 56.7442 54.4 57.4003C53.744 58.0564 52.6802 58.0564 52.0242 57.4003L48.3119 53.688C47.6558 53.0319 47.6558 51.9682 48.3119 51.3121Z" fill="url(#paint6_linear_1_115)"/>
<path fill-rule="evenodd" clip-rule="evenodd" d="M65.8119 68.8121C66.468 68.156 67.5317 68.156 68.1878 68.8121L71.9 72.5244C72.5561 73.1805 72.5561 74.2442 71.9 74.9003C71.244 75.5564 70.1802 75.5564 69.5242 74.9003L65.8119 71.188C65.1558 70.5319 65.1558 69.4682 65.8119 68.8121Z" fill="url(#paint7_linear_1_115)"/>
<path fill-rule="evenodd" clip-rule="evenodd" d="M44.3198 63.0001C44.3198 62.0722 45.072 61.3201 45.9998 61.3201H51.2498C52.1777 61.3201 52.9298 62.0722 52.9298 63.0001C52.9298 63.9279 52.1777 64.6801 51.2498 64.6801H45.9998C45.072 64.6801 44.3198 63.9279 44.3198 63.0001Z" fill="url(#paint8_linear_1_115)"/>
<path fill-rule="evenodd" clip-rule="evenodd" d="M67.0698 63.0001C67.0698 62.0722 67.822 61.3201 68.7498 61.3201H73.9998C74.9277 61.3201 75.6798 62.0722 75.6798 63.0001C75.6798 63.9279 74.9277 64.6801 73.9998 64.6801H68.7498C67.822 64.6801 67.0698 63.9279 67.0698 63.0001Z" fill="url(#paint9_linear_1_115)"/>
<path fill-rule="evenodd" clip-rule="evenodd" d="M52.9998 5.32007C53.9277 5.32007 54.6798 6.07223 54.6798 7.00007V22.8201H70.4998C71.4277 22.8201 72.1798 23.5722 72.1798 24.5001C72.1798 25.4279 71.4277 26.1801 70.4998 26.1801H52.9998C52.072 26.1801 51.3198 25.4279 51.3198 24.5001V7.00007C51.3198 6.07223 52.072 5.32007 52.9998 5.32007Z" fill="url(#paint10_linear_1_115)"/>
<defs>
<linearGradient id="paint0_linear_1_115" x1="42.4998" y1="5.32007" x2="42.4998" y2="78.6801" gradientUnits="userSpaceOnUse">
<stop stop-color="#DBEFEC"/>
<stop offset="1" stop-color="#96D5CE"/>
</linearGradient>
<linearGradient id="paint1_linear_1_115" x1="59.9998" y1="52.5701" x2="59.9998" y2="73.4301" gradientUnits="userSpaceOnUse">
<stop stop-color="#DBEFEC"/>
<stop offset="1" stop-color="#96D5CE"/>
</linearGradient>
<linearGradient id="paint2_linear_1_115" x1="59.9998" y1="47.3201" x2="59.9998" y2="55.9301" gradientUnits="userSpaceOnUse">
<stop stop-color="#DBEFEC"/>
<stop offset="1" stop-color="#96D5CE"/>
</linearGradient>
<linearGradient id="paint3_linear_1_115" x1="59.9998" y1="70.0701" x2="59.9998" y2="78.6801" gradientUnits="userSpaceOnUse">
<stop stop-color="#DBEFEC"/>
<stop offset="1" stop-color="#96D5CE"/>
</linearGradient>
<linearGradient id="paint4_linear_1_115" x1="68.3433" y1="50.8201" x2="68.3433" y2="57.8923" gradientUnits="userSpaceOnUse">
<stop stop-color="#DBEFEC"/>
<stop offset="1" stop-color="#96D5CE"/>
</linearGradient>
<linearGradient id="paint5_linear_1_115" x1="50.8433" y1="68.3201" x2="50.8433" y2="75.3923" gradientUnits="userSpaceOnUse">
<stop stop-color="#DBEFEC"/>
<stop offset="1" stop-color="#96D5CE"/>
</linearGradient>
<linearGradient id="paint6_linear_1_115" x1="51.356" y1="50.8201" x2="51.356" y2="57.8923" gradientUnits="userSpaceOnUse">
<stop stop-color="#DBEFEC"/>
<stop offset="1" stop-color="#96D5CE"/>
</linearGradient>
<linearGradient id="paint7_linear_1_115" x1="68.856" y1="68.3201" x2="68.856" y2="75.3923" gradientUnits="userSpaceOnUse">
<stop stop-color="#DBEFEC"/>
<stop offset="1" stop-color="#96D5CE"/>
</linearGradient>
<linearGradient id="paint8_linear_1_115" x1="48.6248" y1="61.3201" x2="48.6248" y2="64.6801" gradientUnits="userSpaceOnUse">
<stop stop-color="#DBEFEC"/>
<stop offset="1" stop-color="#96D5CE"/>
</linearGradient>
<linearGradient id="paint9_linear_1_115" x1="71.3748" y1="61.3201" x2="71.3748" y2="64.6801" gradientUnits="userSpaceOnUse">
<stop stop-color="#DBEFEC"/>
<stop offset="1" stop-color="#96D5CE"/>
</linearGradient>
<linearGradient id="paint10_linear_1_115" x1="61.7498" y1="5.32007" x2="61.7498" y2="26.1801" gradientUnits="userSpaceOnUse">
<stop stop-color="#DBEFEC"/>
<stop offset="1" stop-color="#96D5CE"/>
</linearGradient>
</defs>
</svg>
