<svg width="84" height="84" viewBox="0 0 84 84" fill="none" xmlns="http://www.w3.org/2000/svg">
<path fill-rule="evenodd" clip-rule="evenodd" d="M12.3198 10.5001C12.3198 7.63923 14.639 5.32007 17.4998 5.32007H54.2498C54.7261 5.32007 55.18 5.52221 55.4986 5.87621L71.2486 23.3762C71.5262 23.6847 71.6798 24.085 71.6798 24.5001V73.5001C71.6798 76.361 69.3607 78.6801 66.4998 78.6801H17.4998C14.639 78.6801 12.3198 76.361 12.3198 73.5001V10.5001ZM17.4998 8.68007C16.4947 8.68007 15.6798 9.49491 15.6798 10.5001V73.5001C15.6798 74.5053 16.4946 75.3201 17.4998 75.3201H66.4998C67.505 75.3201 68.3198 74.5053 68.3198 73.5001V25.1447L53.5016 8.68007H17.4998Z" fill="url(#paint0_linear_1_126)"/>
<path fill-rule="evenodd" clip-rule="evenodd" d="M41.9998 40.1801C38.0952 40.1801 34.9298 43.3454 34.9298 47.2501C34.9298 51.1547 38.0952 54.3201 41.9998 54.3201C45.9045 54.3201 49.0698 51.1547 49.0698 47.2501C49.0698 43.3454 45.9045 40.1801 41.9998 40.1801ZM31.5698 47.2501C31.5698 41.4897 36.2395 36.8201 41.9998 36.8201C47.7602 36.8201 52.4298 41.4897 52.4298 47.2501C52.4298 53.0104 47.7602 57.6801 41.9998 57.6801C36.2395 57.6801 31.5698 53.0104 31.5698 47.2501Z" fill="url(#paint1_linear_1_126)"/>
<path fill-rule="evenodd" clip-rule="evenodd" d="M41.9998 31.5701C42.9277 31.5701 43.6798 32.3222 43.6798 33.2501V38.5001C43.6798 39.4279 42.9277 40.1801 41.9998 40.1801C41.072 40.1801 40.3198 39.4279 40.3198 38.5001V33.2501C40.3198 32.3222 41.072 31.5701 41.9998 31.5701Z" fill="url(#paint2_linear_1_126)"/>
<path fill-rule="evenodd" clip-rule="evenodd" d="M41.9998 54.3201C42.9277 54.3201 43.6798 55.0722 43.6798 56.0001V61.2501C43.6798 62.1779 42.9277 62.9301 41.9998 62.9301C41.072 62.9301 40.3198 62.1779 40.3198 61.2501V56.0001C40.3198 55.0722 41.072 54.3201 41.9998 54.3201Z" fill="url(#paint3_linear_1_126)"/>
<path fill-rule="evenodd" clip-rule="evenodd" d="M53.3873 35.5621C54.0434 36.2182 54.0434 37.2819 53.3873 37.938L49.6751 41.6503C49.019 42.3064 47.9553 42.3064 47.2992 41.6503C46.6431 40.9942 46.6431 39.9305 47.2992 39.2744L51.0115 35.5621C51.6675 34.906 52.7313 34.906 53.3873 35.5621Z" fill="url(#paint4_linear_1_126)"/>
<path fill-rule="evenodd" clip-rule="evenodd" d="M35.8873 53.0621C36.5434 53.7182 36.5434 54.7819 35.8873 55.438L32.1751 59.1503C31.519 59.8064 30.4553 59.8064 29.7992 59.1503C29.1431 58.4942 29.1431 57.4305 29.7992 56.7744L33.5115 53.0621C34.1675 52.406 35.2313 52.406 35.8873 53.0621Z" fill="url(#paint5_linear_1_126)"/>
<path fill-rule="evenodd" clip-rule="evenodd" d="M30.3119 35.5621C30.968 34.906 32.0317 34.906 32.6878 35.5621L36.4 39.2744C37.0561 39.9305 37.0561 40.9942 36.4 41.6503C35.744 42.3064 34.6802 42.3064 34.0242 41.6503L30.3119 37.938C29.6558 37.2819 29.6558 36.2182 30.3119 35.5621Z" fill="url(#paint6_linear_1_126)"/>
<path fill-rule="evenodd" clip-rule="evenodd" d="M47.8119 53.0621C48.468 52.406 49.5317 52.406 50.1878 53.0621L53.9 56.7744C54.5561 57.4305 54.5561 58.4942 53.9 59.1503C53.244 59.8064 52.1802 59.8064 51.5242 59.1503L47.8119 55.438C47.1558 54.7819 47.1558 53.7182 47.8119 53.0621Z" fill="url(#paint7_linear_1_126)"/>
<path fill-rule="evenodd" clip-rule="evenodd" d="M26.3198 47.2501C26.3198 46.3222 27.072 45.5701 27.9998 45.5701H33.2498C34.1777 45.5701 34.9298 46.3222 34.9298 47.2501C34.9298 48.1779 34.1777 48.9301 33.2498 48.9301H27.9998C27.072 48.9301 26.3198 48.1779 26.3198 47.2501Z" fill="url(#paint8_linear_1_126)"/>
<path fill-rule="evenodd" clip-rule="evenodd" d="M49.0698 47.2501C49.0698 46.3222 49.822 45.5701 50.7498 45.5701H55.9998C56.9277 45.5701 57.6798 46.3222 57.6798 47.2501C57.6798 48.1779 56.9277 48.9301 55.9998 48.9301H50.7498C49.822 48.9301 49.0698 48.1779 49.0698 47.2501Z" fill="url(#paint9_linear_1_126)"/>
<path fill-rule="evenodd" clip-rule="evenodd" d="M52.4998 5.32007C53.4277 5.32007 54.1798 6.07223 54.1798 7.00007V22.8201H69.9998C70.9277 22.8201 71.6798 23.5722 71.6798 24.5001C71.6798 25.4279 70.9277 26.1801 69.9998 26.1801H52.4998C51.572 26.1801 50.8198 25.4279 50.8198 24.5001V7.00007C50.8198 6.07223 51.572 5.32007 52.4998 5.32007Z" fill="url(#paint10_linear_1_126)"/>
<defs>
<linearGradient id="paint0_linear_1_126" x1="41.9998" y1="5.32007" x2="41.9998" y2="78.6801" gradientUnits="userSpaceOnUse">
<stop stop-color="#DBEFEC"/>
<stop offset="1" stop-color="#96D5CE"/>
</linearGradient>
<linearGradient id="paint1_linear_1_126" x1="41.9998" y1="36.8201" x2="41.9998" y2="57.6801" gradientUnits="userSpaceOnUse">
<stop stop-color="#DBEFEC"/>
<stop offset="1" stop-color="#96D5CE"/>
</linearGradient>
<linearGradient id="paint2_linear_1_126" x1="41.9998" y1="31.5701" x2="41.9998" y2="40.1801" gradientUnits="userSpaceOnUse">
<stop stop-color="#DBEFEC"/>
<stop offset="1" stop-color="#96D5CE"/>
</linearGradient>
<linearGradient id="paint3_linear_1_126" x1="41.9998" y1="54.3201" x2="41.9998" y2="62.9301" gradientUnits="userSpaceOnUse">
<stop stop-color="#DBEFEC"/>
<stop offset="1" stop-color="#96D5CE"/>
</linearGradient>
<linearGradient id="paint4_linear_1_126" x1="50.3433" y1="35.0701" x2="50.3433" y2="42.1423" gradientUnits="userSpaceOnUse">
<stop stop-color="#DBEFEC"/>
<stop offset="1" stop-color="#96D5CE"/>
</linearGradient>
<linearGradient id="paint5_linear_1_126" x1="32.8433" y1="52.5701" x2="32.8433" y2="59.6423" gradientUnits="userSpaceOnUse">
<stop stop-color="#DBEFEC"/>
<stop offset="1" stop-color="#96D5CE"/>
</linearGradient>
<linearGradient id="paint6_linear_1_126" x1="33.356" y1="35.0701" x2="33.356" y2="42.1423" gradientUnits="userSpaceOnUse">
<stop stop-color="#DBEFEC"/>
<stop offset="1" stop-color="#96D5CE"/>
</linearGradient>
<linearGradient id="paint7_linear_1_126" x1="50.856" y1="52.5701" x2="50.856" y2="59.6423" gradientUnits="userSpaceOnUse">
<stop stop-color="#DBEFEC"/>
<stop offset="1" stop-color="#96D5CE"/>
</linearGradient>
<linearGradient id="paint8_linear_1_126" x1="30.6248" y1="45.5701" x2="30.6248" y2="48.9301" gradientUnits="userSpaceOnUse">
<stop stop-color="#DBEFEC"/>
<stop offset="1" stop-color="#96D5CE"/>
</linearGradient>
<linearGradient id="paint9_linear_1_126" x1="53.3748" y1="45.5701" x2="53.3748" y2="48.9301" gradientUnits="userSpaceOnUse">
<stop stop-color="#DBEFEC"/>
<stop offset="1" stop-color="#96D5CE"/>
</linearGradient>
<linearGradient id="paint10_linear_1_126" x1="61.2498" y1="5.32007" x2="61.2498" y2="26.1801" gradientUnits="userSpaceOnUse">
<stop stop-color="#DBEFEC"/>
<stop offset="1" stop-color="#96D5CE"/>
</linearGradient>
</defs>
</svg>
