<svg width="21" height="15" viewBox="0 0 21 15" fill="none" xmlns="http://www.w3.org/2000/svg">
<path fill-rule="evenodd" clip-rule="evenodd" d="M0.375 1.59375C0.375 1.12776 0.75276 0.75 1.21875 0.75H19.7812C20.2472 0.75 20.625 1.12776 20.625 1.59375C20.625 2.05974 20.2472 2.4375 19.7812 2.4375H1.21875C0.75276 2.4375 0.375 2.05974 0.375 1.59375ZM0.375 7.5C0.375 7.03401 0.75276 6.65625 1.21875 6.65625H19.7812C20.2472 6.65625 20.625 7.03401 20.625 7.5C20.625 7.96599 20.2472 8.34375 19.7812 8.34375H1.21875C0.75276 8.34375 0.375 7.96599 0.375 7.5ZM9.65625 13.4062C9.65625 12.9403 10.034 12.5625 10.5 12.5625H19.7812C20.2472 12.5625 20.625 12.9403 20.625 13.4062C20.625 13.8722 20.2472 14.25 19.7812 14.25H10.5C10.034 14.25 9.65625 13.8722 9.65625 13.4062Z" fill="#00A399"/>
</svg>
