<svg width="41" height="41" viewBox="0 0 41 41" fill="none" xmlns="http://www.w3.org/2000/svg">
<path fill-rule="evenodd" clip-rule="evenodd" d="M12.6758 0.5C9.49318 0.5 6.44094 1.76428 4.1905 4.01472C1.94006 6.26516 0.675781 9.3174 0.675781 12.5L0.675781 28.5C0.675781 31.6826 1.94006 34.7348 4.1905 36.9853C6.44094 39.2357 9.49318 40.5 12.6758 40.5H28.6758C31.8584 40.5 34.9106 39.2357 37.1611 36.9853C39.4115 34.7348 40.6758 31.6826 40.6758 28.5V12.5C40.6758 9.3174 39.4115 6.26516 37.1611 4.01472C34.9106 1.76428 31.8584 0.5 28.6758 0.5L12.6758 0.5ZM11.3424 20.5C11.3424 18.0246 12.3258 15.6507 14.0761 13.9003C15.8265 12.15 18.2004 11.1667 20.6758 11.1667C23.1511 11.1667 25.5251 12.15 27.2754 13.9003C29.0258 15.6507 30.0091 18.0246 30.0091 20.5C30.0091 22.9754 29.0258 25.3493 27.2754 27.0997C25.5251 28.85 23.1511 29.8333 20.6758 29.8333C18.2004 29.8333 15.8265 28.85 14.0761 27.0997C12.3258 25.3493 11.3424 22.9754 11.3424 20.5ZM30.0091 11.1667H32.6758V8.5H30.0091V11.1667Z" fill="#00A399"/>
<path d="M20.6759 13.833C18.9078 13.833 17.2121 14.5354 15.9619 15.7856C14.7117 17.0359 14.0093 18.7316 14.0093 20.4997C14.0093 22.2678 14.7117 23.9635 15.9619 25.2137C17.2121 26.464 18.9078 27.1663 20.6759 27.1663C22.4441 27.1663 24.1397 26.464 25.39 25.2137C26.6402 23.9635 27.3426 22.2678 27.3426 20.4997C27.3426 18.7316 26.6402 17.0359 25.39 15.7856C24.1397 14.5354 22.4441 13.833 20.6759 13.833Z" fill="#00A399"/>
</svg>
