<svg width="30" height="35" viewBox="0 0 30 35" fill="none" xmlns="http://www.w3.org/2000/svg">
<path fill-rule="evenodd" clip-rule="evenodd" d="M15 1.47199C8.01225 1.47199 2.32453 7.24242 2.32453 14.3872V14.3889C2.32453 17.9975 3.35949 21.9295 5.21013 25.3368C7.0622 28.7467 9.69937 31.5747 12.859 33.0515L12.8595 33.0517C13.5295 33.3654 14.2602 33.528 15 33.528C15.7398 33.528 16.4706 33.3654 17.1406 33.0517L17.1412 33.0514C20.3007 31.5755 22.9378 28.7472 24.7899 25.3366C26.6406 21.9287 27.6755 17.9959 27.6755 14.3872C27.6755 7.24242 21.9878 1.47199 15 1.47199ZM0.852539 14.3872C0.852539 6.45415 7.17482 0 15 0C22.8253 0 29.1475 6.45415 29.1475 14.3872C29.1475 18.2588 28.0425 22.4316 26.0835 26.0391C24.1259 29.644 21.2836 32.7411 17.7642 34.3851C16.899 34.7901 15.9553 35 15 35C14.0447 35 13.101 34.79 12.2358 34.385C8.71651 32.7402 5.87425 29.6436 3.91662 26.0394C1.95755 22.4324 0.852539 18.2605 0.852539 14.3889V14.3872Z" fill="white"/>
<path fill-rule="evenodd" clip-rule="evenodd" d="M14.9999 9.85334C12.6288 9.85334 10.7066 11.7755 10.7066 14.1467C10.7066 16.5178 12.6288 18.44 14.9999 18.44C17.3711 18.44 19.2932 16.5178 19.2932 14.1467C19.2932 11.7755 17.3711 9.85334 14.9999 9.85334ZM9.23462 14.1467C9.23462 10.9626 11.8158 8.38135 14.9999 8.38135C18.184 8.38135 20.7652 10.9626 20.7652 14.1467C20.7652 17.3307 18.184 19.912 14.9999 19.912C11.8158 19.912 9.23462 17.3307 9.23462 14.1467Z" fill="white"/>
</svg>
