<svg width="29" height="44" viewBox="0 0 29 44" fill="none" xmlns="http://www.w3.org/2000/svg">
<path d="M11.0088 34.5C10.8016 34.5 10.6029 34.5823 10.4564 34.7288C10.3098 34.8753 10.2275 35.0741 10.2275 35.2812C10.2275 35.4884 10.3098 35.6872 10.4564 35.8337C10.6029 35.9802 10.8016 36.0625 11.0088 36.0625H18.8213C19.0285 36.0625 19.2272 35.9802 19.3737 35.8337C19.5202 35.6872 19.6025 35.4884 19.6025 35.2812C19.6025 35.0741 19.5202 34.8753 19.3737 34.7288C19.2272 34.5823 19.0285 34.5 18.8213 34.5H11.0088ZM5.93066 0.125C4.58386 0.125 3.29222 0.660015 2.33989 1.61235C1.38755 2.56468 0.852539 3.85632 0.852539 5.20312V38.7969C0.852539 40.1437 1.38755 41.4353 2.33989 42.3877C3.29222 43.34 4.58386 43.875 5.93066 43.875H23.8994C25.2462 43.875 26.5379 43.34 27.4902 42.3877C28.4425 41.4353 28.9775 40.1437 28.9775 38.7969V5.20312C28.9775 3.85632 28.4425 2.56468 27.4902 1.61235C26.5379 0.660015 25.2462 0.125 23.8994 0.125H5.93066ZM2.41504 5.20312C2.41504 4.27072 2.78543 3.37651 3.44474 2.7172C4.10405 2.0579 4.99826 1.6875 5.93066 1.6875H23.8994C24.8318 1.6875 25.726 2.0579 26.3853 2.7172C27.0446 3.37651 27.415 4.27072 27.415 5.20312V38.7969C27.415 39.7293 27.0446 40.6235 26.3853 41.2828C25.726 41.9421 24.8318 42.3125 23.8994 42.3125H5.93066C4.99826 42.3125 4.10405 41.9421 3.44474 41.2828C2.78543 40.6235 2.41504 39.7293 2.41504 38.7969V5.20312Z" fill="white"/>
</svg>
