<svg width="41" height="41" viewBox="0 0 41 41" fill="none" xmlns="http://www.w3.org/2000/svg">
<path d="M20.6758 0.5C16.7202 0.5 12.8534 1.67298 9.56438 3.87061C6.2754 6.06823 3.71195 9.19181 2.1982 12.8463C0.684447 16.5008 0.28838 20.5222 1.06008 24.4018C1.83179 28.2814 3.7366 31.8451 6.53365 34.6421C9.3307 37.4392 12.8944 39.344 16.774 40.1157C20.6536 40.8874 24.6749 40.4913 28.3295 38.9776C31.984 37.4638 35.1075 34.9004 37.3052 31.6114C39.5028 28.3224 40.6758 24.4556 40.6758 20.5C40.6758 17.8736 40.1585 15.2728 39.1534 12.8463C38.1483 10.4198 36.6751 8.21503 34.8179 6.35786C32.9607 4.50069 30.756 3.0275 28.3295 2.02241C25.9029 1.01732 23.3022 0.5 20.6758 0.5ZM27.0358 30.804C26.9611 30.9908 26.8474 31.1595 26.7021 31.2988C26.5569 31.438 26.3835 31.5446 26.1937 31.6112C26.0039 31.6779 25.802 31.7032 25.6016 31.6854C25.4012 31.6676 25.2069 31.6071 25.0318 31.508L19.6018 27.288L16.1178 30.504C16.0369 30.5637 15.9423 30.6021 15.8427 30.6158C15.7431 30.6294 15.6417 30.6178 15.5478 30.582L16.2158 24.604L16.2358 24.622L16.2498 24.504C16.2498 24.504 26.0198 15.608 26.4178 15.23C26.8218 14.852 26.6878 14.77 26.6878 14.77C26.7118 14.31 25.9658 14.77 25.9658 14.77L13.0198 23.098L7.62979 21.262C7.62979 21.262 6.80179 20.966 6.72379 20.312C6.64179 19.664 7.65579 19.312 7.65579 19.312L29.0898 10.796C29.0898 10.796 30.8518 10.012 30.8518 11.312L27.0358 30.804Z" fill="#00A399"/>
</svg>
